# xmcd
#
# Track frame offsets: 
#        150
#        16498
#        33897
#
# Disc length: 640 seconds
#
# Revision: 0
# Processed by: cddbd v1.5.2PL0 Copyright (c) Steve Scherf et al.
# Submitted via: ExactAudioCopy v0.99pb5
#
DISCID=18027e03
DTITLE=Isla - Constellations
DYEAR=2011
DGENRE=Acoustic
TTITLE0=Constellations
TTITLE1=Run for you
TTITLE2=Defences
EXTD=
EXTT0=
EXTT1=
EXTT2=
PLAYORDER=
